<svg height="480pt" viewBox="0 0 480 480.00112" width="480pt" xmlns="http://www.w3.org/2000/svg"><path d="m240 0c-132.335938 0-240 82.542969-240 184s107.664062 184 240 184c28.234375.085938 56.34375-3.773438 83.511719-11.464844-9.984375 29.039063-23.007813 56.941406-38.847657 83.25-12.671874 22.480469-16.496093 29.261719-12.75 35.6875 1.6875 2.851563 4.773438 4.578125 8.085938 4.527344 31.480469 0 138.328125-97.65625 143.746094-177.542969 36.300781-32.984375 56.253906-74.929687 56.253906-118.457031 0-101.457031-107.664062-184-240-184zm170.640625 292.710938c-1.664063 1.464843-2.644531 3.554687-2.710937 5.769531-1.984376 65.121093-81.601563 142.777343-116.128907 161.367187 2.070313-3.824218 4.496094-8.128906 6.800781-12.207031 14.207032-25.207031 35.679688-63.304687 44.167969-101.335937.527344-2.371094-.046875-4.851563-1.566406-6.746094-1.519531-1.894532-3.8125-3-6.242187-3-.882813 0-1.757813.144531-2.59375.433594-29.746094 10.070312-60.960938 15.140624-92.367188 15.007812-123.511719 0-224-75.359375-224-168s100.488281-168 224-168 224 75.359375 224 168c0 39.863281-18.953125 78.472656-53.359375 108.710938zm0 0"/><path d="m408 176h-336c-4.417969 0-8 3.582031-8 8s3.582031 8 8 8h336c4.417969 0 8-3.582031 8-8s-3.582031-8-8-8zm0 0"/><path d="m312 240h-192c-4.417969 0-8 3.582031-8 8s3.582031 8 8 8h192c4.417969 0 8-3.582031 8-8s-3.582031-8-8-8zm0 0"/><path d="m120 128h240c4.417969 0 8-3.582031 8-8s-3.582031-8-8-8h-240c-4.417969 0-8 3.582031-8 8s3.582031 8 8 8zm0 0"/></svg>