<svg height="480pt" viewBox="-24 0 480 480.00033" width="480pt" xmlns="http://www.w3.org/2000/svg"><path d="m360 432h-304c-3.863281-.050781-7.148438-2.835938-7.832031-6.640625-.101563-.445313-.160157-.902344-.167969-1.359375-.042969-2.101562.78125-4.125 2.28125-5.601562 1.496094-1.550782 3.5625-2.417969 5.71875-2.398438h160c4.417969 0 8-3.582031 8-8s-3.582031-8-8-8h-160c-6.402344-.003906-12.539062 2.5625-17.03125 7.128906-4.492188 4.460938-7.003906 10.539063-6.96875 16.871094.003906 1.375.136719 2.746094.398438 4.097656 2.027343 11.464844 11.960937 19.839844 23.601562 19.902344h304c4.417969 0 8-3.582031 8-8s-3.582031-8-8-8zm0 0"/><path d="m424 0h-368c-30.910156.0390625-55.9609375 25.089844-56 56v376c.0507812 1.429688.539062 2.8125 1.390625 3.960938 5.492187 25.75 28.28125 44.128906 54.609375 44.039062h368c4.417969 0 8-3.582031 8-8v-464c0-4.417969-3.582031-8-8-8zm-8 368h-336v-352h336zm-400-312c.027344-22.082031 17.917969-39.972656 40-40h8v56h-8c-15.066406-.003906-29.496094 6.085938-40 16.886719zm0 72c.027344-22.082031 17.917969-39.972656 40-40h8v56h-8c-15.066406-.003906-29.496094 6.085938-40 16.886719zm0 72c.027344-22.082031 17.917969-39.972656 40-40h8v56h-8c-15.066406-.003906-29.496094 6.085938-40 16.886719zm0 72c.027344-22.082031 17.917969-39.972656 40-40h8v56h-8c-15.066406-.003906-29.496094 6.085938-40 16.886719zm0 112.800781v-40.800781c.027344-22.082031 17.917969-39.972656 40-40h8v64h-8c-14.851562-.070312-29.105469 5.839844-39.550781 16.398438zm40 79.199219c-19.585938.066406-36.304688-14.128906-39.414062-33.464844-.398438-2.15625-.59375-4.34375-.585938-6.535156.039062-22.074219 17.925781-39.960938 40-40h360v15.871094c-18.871094.128906-71.808594.128906-136 .128906-4.417969 0-8 3.582031-8 8s3.582031 8 8 8c42.671875 0 128.921875-.0625 136-.3125v48.3125zm0 0"/><path d="m145.6875 173.886719c-3.394531 18.316406-1.644531 37.210937 5.046875 54.59375.074219.273437.167969.539062.28125.800781 11.335937 29.417969 35.363281 52.136719 65.367187 61.808594l.144532.054687c10.179687 3.230469 20.792968 4.867188 31.472656 4.855469 1.457031 0 2.871094-.160156 4.3125-.214844.136719 0 .273438.054688.40625.054688.136719 0 .457031-.097656.6875-.113282 35.746094-1.863281 68.023438-21.976562 85.441406-53.246093.242188-.339844.457032-.699219.640625-1.074219 13.246094-24.433594 16.128907-53.164062 8-79.742188 0-.089843 0-.183593-.0625-.273437-12.003906-38.625-45.273437-66.820313-85.34375-72.328125-.328125-.066406-.65625-.113281-.984375-.140625-20.703125-2.820313-41.773437.855469-60.296875 10.519531-.378906.144532-.742187.320313-1.089843.527344-28.195313 14.835938-48.054688 41.753906-53.910157 73.070312-.058593.28125-.09375.5625-.113281.847657zm14.3125 18.113281c0-.71875.089844-1.414062.105469-2.136719 2.222656 1.054688 4.597656 1.757813 7.039062 2.089844 2.980469.25 5.980469.078125 8.910157-.519531-1.808594 4.261718-4.058594 8.328125-6.710938 12.125-2.058594 3.070312-4.371094 5.964844-6.902344 8.65625-1.601562-6.621094-2.417968-13.402344-2.441406-20.214844zm98.488281 87.3125c-2.023437-7.464844-2.863281-15.203125-2.488281-22.929688l.175781-4.238281c.464844-11.472656.929688-17.679687 5.65625-22.648437 6-6.1875 14.941407-8.523438 23.199219-6.0625 2.921875 1.160156 4.191406 2.855468 6.585938 6.261718 2.011718 3.089844 4.417968 5.902344 7.160156 8.367188 5.308594 4.347656 11.742187 7.101562 18.550781 7.9375-14.386719 18.503906-35.570313 30.496094-58.839844 33.3125zm66.457031-129.921875c-9.25-3.109375-18.886718-4.921875-28.632812-5.390625-1.480469-.0625-3.023438-.089844-4.601562-.113281-7.789063.992187-15.664063-.992188-22.054688-5.550781-4.140625-5.234376-6.160156-11.832032-5.65625-18.488282-.058594-4.734375.660156-9.449218 2.128906-13.953125 24.972656 5.3125 46.421875 21.175781 58.816406 43.496094zm-74.90625-45.285156c-1.414062 5.210937-2.097656 10.597656-2.039062 16-.507812 10.808593 3.199219 21.394531 10.34375 29.527343 9.214844 7.710938 21.144531 11.398438 33.105469 10.230469 1.445312 0 2.871093.046875 4.261719.105469 12.964843.71875 25.65625 4.027344 37.320312 9.726562 5.488281 20.378907 3.316406 42.058594-6.101562 60.945313-6.28125.652344-12.578126-1.027344-17.699219-4.71875-1.722657-1.609375-3.234375-3.433594-4.496094-5.425781-3.195313-5.351563-8.023437-9.539063-13.773437-11.953125-14.355469-5-30.308594-1.117188-40.761719 9.921875-9.070313 9.535156-9.527344 20.941406-10.015625 33.015625l-.183594 4.128906c-.375 8.089844.339844 16.195313 2.128906 24.09375-3.929687-.226563-7.835937-.71875-11.695312-1.472656 2.34375-5.269531 2.75-11.199219 1.152344-16.742188-2.453126-6.222656-7.160157-11.289062-13.1875-14.183593-4.773438-2.335938-8.691407-6.117188-11.199219-10.808594-3.734375-7.835938-3.773438-16.933594-.101563-24.800782 2.125-3.746093 5.351563-6.753906 9.238282-8.617187 6.742187-3.441406 12.074218-9.125 15.082031-16.070313 3.226562-9.308593 3.367187-19.40625.398437-28.800781-2.007812-8.785156-5.78125-17.074219-11.089844-24.359375-2.058593-2.933594-3.882812-6.027344-5.453124-9.246094-1.753907-4.09375-2.835938-8.445312-3.203126-12.882812 11.292969-5.09375 23.542969-7.722656 35.929688-7.71875.6875 0 1.351562.089844 2.039062.105469zm-52.976562 16.261719c.835938 3.777343 2.066406 7.457031 3.671875 10.976562 1.90625 3.972656 4.128906 7.785156 6.648437 11.398438 4.226563 5.667968 7.226563 12.152343 8.800782 19.042968 2.167968 6.175782 2.3125 12.886719.410156 19.152344-1.75 3.777344-4.800781 6.800781-8.59375 8.519531-6.367188 3.339844-11.601562 8.488281-15.046875 14.800781-6.082031 12.363282-6.125 26.84375-.121094 39.246094 3.804688 7.417969 9.789063 13.496094 17.152344 17.40625 4.105469 2.546875 5.839844 3.753906 6.449219 5.601563.421875 2.425781-.011719 4.925781-1.234375 7.0625-20.746094-8.410157-37.53125-24.378907-46.960938-44.6875 5.480469-4.828125 10.320313-10.339844 14.402344-16.398438 10.726563-15.785156 13.214844-27.152343 7.390625-33.777343-4.136719-3.933594-10.136719-5.199219-15.511719-3.269532-1.832031.441406-3.714843.644532-5.597656.605469-2.558594-.492187-4.882813-1.824219-6.601563-3.78125 4.859376-20.960937 17.214844-39.417969 34.742188-51.898437zm0 0"/></svg>