<svg height="480pt" viewBox="0 -84 480 480" width="480pt" xmlns="http://www.w3.org/2000/svg"><path d="m472 80h-48c-4.417969 0-8 3.582031-8 8v24.207031c-6.882812-5.292969-15.316406-8.175781-24-8.207031h-304c-8.683594.03125-17.117188 2.914062-24 8.207031v-104.207031c0-4.417969-3.582031-8-8-8h-48c-4.417969 0-8 3.582031-8 8v296c0 4.417969 3.582031 8 8 8h48c4.417969 0 8-3.582031 8-8v-40h352v40c0 4.417969 3.582031 8 8 8h48c4.417969 0 8-3.582031 8-8v-216c0-4.417969-3.582031-8-8-8zm-40 16h32v152h-32zm-344 24h304c13.253906 0 24 10.746094 24 24v40h-352v-40c0-13.253906 10.746094-24 24-24zm-72-104h32v232h-32zm32 280h-32v-32h32zm16-96h352v48h-352zm400 96h-32v-32h32zm0 0"/><path d="m104 96h64c13.253906 0 24-10.746094 24-24s-10.746094-24-24-24h-64c-13.253906 0-24 10.746094-24 24s10.746094 24 24 24zm0-32h64c4.417969 0 8 3.582031 8 8s-3.582031 8-8 8h-64c-4.417969 0-8-3.582031-8-8s3.582031-8 8-8zm0 0"/><path d="m392 216h-304c-4.417969 0-8 3.582031-8 8s3.582031 8 8 8h304c4.417969 0 8-3.582031 8-8s-3.582031-8-8-8zm0 0"/></svg>