<svg height="480pt" viewBox="0 0 480 480" width="480pt" xmlns="http://www.w3.org/2000/svg"><path d="m464 432.992188v-288.992188c0-4.417969-3.582031-8-8-8h-184v-128c0-4.417969-3.582031-8-8-8h-256c-4.417969 0-8 3.582031-8 8v432c0 4.417969 3.582031 8 8 8h197.433594c-3.574219 7.496094-5.429688 15.695312-5.433594 24 0 4.417969 3.582031 8 8 8h264c4.417969 0 8-3.582031 8-8-.003906-14.597656-5.753906-28.609375-16-39.007812zm-16-280.992188v269.441406c-1.152344-.554687-2.398438-.976562-3.542969-1.449218-.65625-.257813-1.296875-.558594-1.960937-.800782-2.160156-.769531-4.367188-1.402344-6.609375-1.894531 13.328125-40.527344-7.488281-84.378906-47.3125-99.675781s-84.644531 3.351562-101.871094 42.378906c-2.433594.058594-4.863281.273438-7.269531.648438-.722656.113281-1.410156.320312-2.121094.457031-1.671875.328125-3.335938.65625-4.960938 1.125l-.351562.082031v-210.3125zm-432-136h240v354.089844c-.398438.277344-.753906.613281-1.144531.902344-.800781.601562-1.597657 1.230468-2.398438 1.871093-1.050781.863281-2.066406 1.753907-3.050781 2.679688-.726562.695312-1.429688 1.417969-2.117188 2.144531-.929687.984375-1.800781 1.992188-2.648437 3.03125-.632813.800781-1.257813 1.5625-1.839844 2.402344-.800781 1.085937-1.527343 2.207031-2.242187 3.351562-.527344.800782-1.054688 1.671875-1.535156 2.535156-.65625 1.199219-1.238282 2.398438-1.808594 3.671876-.40625.878906-.800782 1.746093-1.191406 2.640624-.527344 1.320313-.960938 2.679688-1.382813 4-.28125.871094-.59375 1.726563-.800781 2.625-.398438 1.519532-.671875 3.078126-.9375 4.640626-.132813.757812-.328125 1.511718-.421875 2.277343-.3125 2.367188-.472657 4.75-.480469 7.136719 0 1.761719.121094 3.511719.289062 5.265625-5.671874 2.6875-10.851562 6.320313-15.3125 10.734375h-200.976562zm200.800781 448c1.417969-6.941406 4.65625-13.382812 9.382813-18.664062 4.679687-5.269532 10.679687-9.199219 17.382812-11.375 6.167969-1.972657 12.71875-2.449219 19.105469-1.394532 4.664063.777344 9.148437 2.40625 13.222656 4.800782 1.242188.742187 2.660157 1.125 4.105469 1.113281 3.605469 0 6.769531-2.410157 7.71875-5.890625.953125-3.476563-.542969-7.164063-3.648438-8.996094-5.773437-3.417969-12.125-5.734375-18.742187-6.839844h-.046875c-5.71875-.925781-11.542969-.988281-17.28125-.195312v-.558594c.019531-14.300781 7.671875-27.507812 20.070312-34.632812 6.035157-3.5625 12.921876-5.417969 19.929688-5.367188 1.027344-.003906 2.058594.054688 3.078125.175781h.195313c.0625 0 .109374.039063.167968.046875 15.617188 1.261719 29.027344 11.609375 34.207032 26.402344 1.460937 4.167969 6.027343 6.367188 10.199218 4.902344 4.171875-1.460938 6.367188-6.027344 4.90625-10.199219-6.011718-17.066406-19.953125-30.136719-37.371094-35.039063 15.761719-30.429687 52.71875-43.011718 83.769532-28.515624 31.050781 14.5 45.136718 50.910156 31.925781 82.53125-8.160156.660156-16.074219 3.140624-23.148437 7.261718-3.804688 2.25-5.066407 7.15625-2.816407 10.960938 2.246094 3.804687 7.15625 5.066406 10.957031 2.816406 6.167969-3.605469 13.203126-5.453125 20.34375-5.34375 18.820313.292969 34.921876 13.582031 38.785157 32zm0 0"/><path d="m88 48h-32c-4.417969 0-8 3.582031-8 8v32c0 4.417969 3.582031 8 8 8h32c4.417969 0 8-3.582031 8-8v-32c0-4.417969-3.582031-8-8-8zm-8 32h-16v-16h16zm0 0"/><path d="m152 48h-32c-4.417969 0-8 3.582031-8 8v32c0 4.417969 3.582031 8 8 8h32c4.417969 0 8-3.582031 8-8v-32c0-4.417969-3.582031-8-8-8zm-8 32h-16v-16h16zm0 0"/><path d="m184 96h32c4.417969 0 8-3.582031 8-8v-32c0-4.417969-3.582031-8-8-8h-32c-4.417969 0-8 3.582031-8 8v32c0 4.417969 3.582031 8 8 8zm8-32h16v16h-16zm0 0"/><path d="m88 112h-32c-4.417969 0-8 3.582031-8 8v32c0 4.417969 3.582031 8 8 8h32c4.417969 0 8-3.582031 8-8v-32c0-4.417969-3.582031-8-8-8zm-8 32h-16v-16h16zm0 0"/><path d="m152 112h-32c-4.417969 0-8 3.582031-8 8v32c0 4.417969 3.582031 8 8 8h32c4.417969 0 8-3.582031 8-8v-32c0-4.417969-3.582031-8-8-8zm-8 32h-16v-16h16zm0 0"/><path d="m184 160h32c4.417969 0 8-3.582031 8-8v-32c0-4.417969-3.582031-8-8-8h-32c-4.417969 0-8 3.582031-8 8v32c0 4.417969 3.582031 8 8 8zm8-32h16v16h-16zm0 0"/><path d="m88 176h-32c-4.417969 0-8 3.582031-8 8v32c0 4.417969 3.582031 8 8 8h32c4.417969 0 8-3.582031 8-8v-32c0-4.417969-3.582031-8-8-8zm-8 32h-16v-16h16zm0 0"/><path d="m152 176h-32c-4.417969 0-8 3.582031-8 8v32c0 4.417969 3.582031 8 8 8h32c4.417969 0 8-3.582031 8-8v-32c0-4.417969-3.582031-8-8-8zm-8 32h-16v-16h16zm0 0"/><path d="m184 224h32c4.417969 0 8-3.582031 8-8v-32c0-4.417969-3.582031-8-8-8h-32c-4.417969 0-8 3.582031-8 8v32c0 4.417969 3.582031 8 8 8zm8-32h16v16h-16zm0 0"/><path d="m312 232h32c4.417969 0 8-3.582031 8-8v-32c0-4.417969-3.582031-8-8-8h-32c-4.417969 0-8 3.582031-8 8v32c0 4.417969 3.582031 8 8 8zm8-32h16v16h-16zm0 0"/><path d="m376 232h32c4.417969 0 8-3.582031 8-8v-32c0-4.417969-3.582031-8-8-8h-32c-4.417969 0-8 3.582031-8 8v32c0 4.417969 3.582031 8 8 8zm8-32h16v16h-16zm0 0"/><path d="m312 296h32c4.417969 0 8-3.582031 8-8v-32c0-4.417969-3.582031-8-8-8h-32c-4.417969 0-8 3.582031-8 8v32c0 4.417969 3.582031 8 8 8zm8-32h16v16h-16zm0 0"/><path d="m376 296h32c4.417969 0 8-3.582031 8-8v-32c0-4.417969-3.582031-8-8-8h-32c-4.417969 0-8 3.582031-8 8v32c0 4.417969 3.582031 8 8 8zm8-32h16v16h-16zm0 0"/><path d="m88 240h-32c-4.417969 0-8 3.582031-8 8v32c0 4.417969 3.582031 8 8 8h32c4.417969 0 8-3.582031 8-8v-32c0-4.417969-3.582031-8-8-8zm-8 32h-16v-16h16zm0 0"/><path d="m152 240h-32c-4.417969 0-8 3.582031-8 8v32c0 4.417969 3.582031 8 8 8h32c4.417969 0 8-3.582031 8-8v-32c0-4.417969-3.582031-8-8-8zm-8 32h-16v-16h16zm0 0"/><path d="m224 280v-32c0-4.417969-3.582031-8-8-8h-32c-4.417969 0-8 3.582031-8 8v32c0 4.417969 3.582031 8 8 8h32c4.417969 0 8-3.582031 8-8zm-16-8h-16v-16h16zm0 0"/></svg>