<svg height="480pt" viewBox="-104 0 480 480" width="480pt" xmlns="http://www.w3.org/2000/svg"><path d="m232 128h-48v-88h16c4.417969 0 8-3.582031 8-8v-24c0-4.417969-3.582031-8-8-8h-128c-4.417969 0-8 3.582031-8 8v24c0 4.417969 3.582031 8 8 8h16v88h-48c-22.082031.027344-39.9726562 17.917969-40 40v248c.0273438 22.082031 17.917969 39.972656 40 40v16c0 4.417969 3.582031 8 8 8h32c4.417969 0 8-3.582031 8-8v-16h96v16c0 4.417969 3.582031 8 8 8h32c4.417969 0 8-3.582031 8-8v-16c22.082031-.027344 39.972656-17.917969 40-40v-248c-.027344-22.082031-17.917969-39.972656-40-40zm-152-112h112v8h-112zm24 24h64v88h-64zm-32 424h-16v-8h16zm144 0h-16v-8h16zm40-48c0 13.253906-10.746094 24-24 24h-192c-13.253906 0-24-10.746094-24-24v-248c0-13.253906 10.746094-24 24-24h192c13.253906 0 24 10.746094 24 24zm0 0"/><path d="m136 160c-4.417969 0-8 3.582031-8 8v248c0 4.417969 3.582031 8 8 8s8-3.582031 8-8v-248c0-4.417969-3.582031-8-8-8zm0 0"/><path d="m200 176c-4.417969 0-8 3.582031-8 8v216c0 4.417969 3.582031 8 8 8s8-3.582031 8-8v-216c0-4.417969-3.582031-8-8-8zm0 0"/><path d="m72 176c-4.417969 0-8 3.582031-8 8v216c0 4.417969 3.582031 8 8 8s8-3.582031 8-8v-216c0-4.417969-3.582031-8-8-8zm0 0"/></svg>