<svg height="480pt" viewBox="0 0 480 480.00038" width="480pt" xmlns="http://www.w3.org/2000/svg"><path d="m472 0h-420c-25.9375-.0976562-47.910156 19.085938-51.3125 44.800781-.449219 1.007813-.68359375 2.097657-.6875 3.199219v376c.0351562 30.914062 25.085938 55.964844 56 56h416c4.417969 0 8-3.582031 8-8v-464c0-4.417969-3.582031-8-8-8zm-445.464844 26.535156c6.742188-6.769531 15.910156-10.5625 25.464844-10.535156h412v72h-412c-19.871094-.023438-35.976562-16.125-36-36 0-1.113281.074219-2.230469.214844-3.335938.714844-8.363281 4.371094-16.203124 10.320312-22.128906zm437.464844 437.464844h-408c-22.082031-.027344-39.972656-17.917969-40-40v-334.511719c.503906.480469 1.054688.910157 1.601562 1.375.542969.464844 1.132813 1.03125 1.726563 1.519531.59375.488282 1.417969 1.066407 2.128906 1.601563.710938.535156 1.214844.910156 1.847657 1.335937.632812.425782 1.542968.945313 2.320312 1.40625.640625.378907 1.261719.800782 1.917969 1.136719.800781.441407 1.695312.800781 2.5625 1.234375.648437.300782 1.269531.628906 1.933593.902344.90625.375 1.839844.6875 2.769532 1.015625.65625.234375 1.289062.496094 1.960937.695313.992188.3125 2.015625.539062 3.039063.800781.625.152343 1.238281.34375 1.871094.472656 1.152343.230469 2.328124.382813 3.496093.535156.535157.074219 1.0625.183594 1.601563.242188 1.726562.167969 3.480468.261719 5.246094.261719h411.976562zm0 0"/><path d="m240 200c22.089844 0 40-17.910156 40-40s-17.910156-40-40-40-40 17.910156-40 40c.027344 22.082031 17.917969 39.972656 40 40zm0-64c13.253906 0 24 10.746094 24 24s-10.746094 24-24 24-24-10.746094-24-24 10.746094-24 24-24zm0 0"/><path d="m194.34375 434.34375c-2.285156 2.289062-2.972656 5.730469-1.734375 8.71875s4.15625 4.9375 7.390625 4.9375h96c3.234375 0 6.152344-1.949219 7.390625-4.9375s.554687-6.429688-1.734375-8.71875l-21.65625-21.65625v-188.6875c0-4.417969-3.582031-8-8-8h-72c-3.234375 0-6.152344 1.949219-7.390625 4.9375-1.238281 2.992188-.550781 6.429688 1.734375 8.71875l21.65625 21.65625v161.375zm35.3125-192-10.34375-10.34375h44.6875v184c0 2.121094.84375 4.15625 2.34375 5.65625l10.34375 10.34375h-57.375l10.34375-10.34375c1.5-1.5 2.34375-3.535156 2.34375-5.65625v-168c0-2.121094-.84375-4.15625-2.34375-5.65625zm0 0"/><path d="m56 160c-4.417969 0-8 3.582031-8 8v232c0 4.417969 3.582031 8 8 8s8-3.582031 8-8v-232c0-4.417969-3.582031-8-8-8zm0 0"/><path d="m48 128v8c0 4.417969 3.582031 8 8 8s8-3.582031 8-8v-8c0-4.417969-3.582031-8-8-8s-8 3.582031-8 8zm0 0"/><path d="m56 424c-4.417969 0-8 3.582031-8 8v8c0 4.417969 3.582031 8 8 8s8-3.582031 8-8v-8c0-4.417969-3.582031-8-8-8zm0 0"/></svg>