<svg height="480pt" viewBox="0 0 480 480" width="480pt" xmlns="http://www.w3.org/2000/svg"><path d="m440 272h-48v-16c0-13.253906-10.746094-24-24-24h-64c-13.253906 0-24 10.746094-24 24v16h-8.40625c-4.207031-54.121094-49.308594-95.917969-103.59375-96v-21.601562c19.515625-9.195313 31.980469-28.824219 32-50.398438v-64c-.027344-22.082031-17.917969-39.9726562-40-40h-112c-4.417969 0-8 3.582031-8 8v16c.023438 19 13.386719 35.371094 32 39.199219v40.800781c.015625 21.578125 12.480469 41.207031 32 50.398438v21.601562c-57.410156.066406-103.9335938 46.589844-104 104v104c0 4.417969 3.582031 8 8 8h184v48c.027344 22.082031 17.917969 39.972656 40 40h208c22.082031-.027344 39.972656-17.917969 40-40v-128c-.027344-22.082031-17.917969-39.972656-40-40zm-144-16c0-4.417969 3.582031-8 8-8h64c4.417969 0 8 3.582031 8 8v16h-80zm-176-72v-24.574219c2.648438.382813 5.324219.574219 8 .574219h16c2.675781 0 5.351562-.191406 8-.574219v48.574219c0 4.417969-3.582031 8-8 8h-16c-4.417969 0-8-3.582031-8-8zm-64-160v-8h104c13.253906 0 24 10.746094 24 24v8h-104c-13.253906 0-24-10.746094-24-24zm32 80v-40h96v40c.023438 16.972656-10.707031 32.101562-26.734375 37.6875-4.253906 1.539062-8.742187 2.320312-13.265625 2.3125h-16c-4.558594.003906-9.085938-.792969-13.367188-2.351562-15.980468-5.609376-26.667968-20.710938-26.632812-37.648438zm-72 272v-96c.058594-48.578125 39.421875-87.941406 88-88v16c0 13.253906 10.746094 24 24 24h16c13.253906 0 24-10.746094 24-24v-16c45.480469.054688 83.449219 34.710938 87.640625 80h-23.640625c-22.082031.027344-39.972656 17.917969-40 40v64zm448 64c0 13.253906-10.746094 24-24 24h-208c-13.253906 0-24-10.746094-24-24v-128c0-13.253906 10.746094-24 24-24h208c13.253906 0 24 10.746094 24 24zm0 0"/><path d="m336 304c-4.417969 0-8 3.582031-8 8v128c0 4.417969 3.582031 8 8 8s8-3.582031 8-8v-128c0-4.417969-3.582031-8-8-8zm0 0"/><path d="m400 304c-4.417969 0-8 3.582031-8 8v128c0 4.417969 3.582031 8 8 8s8-3.582031 8-8v-128c0-4.417969-3.582031-8-8-8zm0 0"/><path d="m272 304c-4.417969 0-8 3.582031-8 8v128c0 4.417969 3.582031 8 8 8s8-3.582031 8-8v-128c0-4.417969-3.582031-8-8-8zm0 0"/></svg>