<svg height="480pt" viewBox="0 0 480.00073 480" width="480pt" xmlns="http://www.w3.org/2000/svg"><path d="m240 56c-26.507812 0-48 21.492188-48 48 0 26.511719 21.492188 48 48 48 3.226562.023438 6.445312-.300781 9.601562-.960938 24.167969-4.90625 40.683594-27.328124 38.203126-51.863281-2.476563-24.535156-23.144532-43.199219-47.804688-43.175781zm6.296875 79.382812c-2.070313.429688-4.179687.636719-6.296875.617188-17.027344-.027344-31.039062-13.40625-31.855469-30.414062-.8125-17.003907 11.851563-31.664063 28.796875-33.320313 16.949219-1.660156 32.214844 10.265625 34.710938 27.109375s-8.65625 32.683594-25.355469 36.007812zm0 0"/><path d="m474.609375 290.128906c3.546875-16.476562 5.351563-33.277344 5.390625-50.128906 0-4.800781-.167969-9.65625-.503906-14.398438v-.058593l-.238282-3.40625c-3.644531-51.867188-24.230468-101.097657-58.59375-140.121094-5.054687-5.78125-10.566406-11.488281-16.390624-16.96875-44.433594-41.875-103.214844-65.152344-164.273438-65.046875-2.078125 0-4.144531 0-5.703125.160156-29.199219.597656-58.039063 6.5625-85.082031 17.601563l-.125.0625c-54.433594 22.277343-98.792969 63.757812-124.664063 116.578125-.144531.296875-.269531.605468-.378906.917968-15.910156 32.597657-24.1367188 68.40625-24.046875 104.679688-.0742188 121.480469 90.707031 223.824219 211.328125 238.25 3.113281.414062 6.207031.671875 9.226563.917969 6.191406.5625 12.550781.800781 19.445312.800781 20.125-.027344 40.164062-2.589844 59.648438-7.617188.496093-.070312.984374-.191406 1.457031-.351562 87.148437-22.761719 154.105469-92.578125 173.214843-180.597656.117188-.261719.21875-.527344.304688-.800782.023438-.199218-.03125-.320312-.015625-.472656zm-65.984375-197.601562c26.242188 29.898437 43.933594 66.328125 51.199219 105.441406-2.652344-1.867188-5.410157-3.582031-8.253907-5.144531-10.921874-7.003907-23.898437-10.089844-36.800781-8.75-9.75 1.707031-18.640625 6.644531-25.242187 14.023437-4.1875 4.730469-9.582032 8.238282-15.605469 10.152344-18.1875 3.835938-36.835937-4.070312-46.722656-19.808594-5.0625-10.183594-2.300781-22.058594.632812-34.65625 1.566407-6.796875 4.039063-13.347656 7.359375-19.480468 3.261719-6.367188 6.070313-12.953126 8.410156-19.710938 4.4375-13.644531 7.257813-27.761719 8.398438-42.066406.527344-9.734375-.789062-19.480469-3.878906-28.726563 16.386718 9.035157 31.574218 20.089844 45.207031 32.902344 5.425781 5.121094 10.570313 10.449219 15.296875 15.847656zm-269.335938-52.527344c-2.707031 10.59375-3.8125 21.535156-3.289062 32.457031.457031 6.59375 1.394531 13.144531 2.808594 19.601563 2.445312 12.128906 4.1875 24.386718 5.214844 36.71875 2.3125 25.816406 3.472656 38.773437.144531 53.488281-3.765625 16.976563-15.296875 32.421875-26.445313 47.367187l-7.625 10.238282c-5.105468 6.394531-9.554687 13.285156-13.28125 20.570312-6.734375 13.390625-16.9375 33.597656-7.503906 48 6.703125 10.136719 19.855469 11.855469 30.519531 11.855469 3.199219 0 6.105469-.144531 8.601563-.273437 16.382812-1.519532 32.230468-6.644532 46.398437-15.015626 5.855469-2.855468 12.503907-6.09375 20.410157-9.664062 1.414062-.632812 3.109374-1.359375 4.75-2.070312v18.726562c-8.527344.222656-16.851563 2.667969-24.144532 7.097656l-3.390625 1.71875c-17.480469 8.617188-42.289062 17.136719-59.578125 15.199219-19.847656-2.191406-33.679687-18.414063-42.796875-29.214844-21.210937-24.800781-25.359375-52.230469-30.167969-84-5.160156-27.207031-5.355468-55.121093-.585937-82.398437 21.585937-43.398438 56.660156-78.625 99.960937-100.402344zm126.183594 365.976562 7.070313 10.023438h-65.085938l7.070313-10.023438c.957031-1.347656 1.472656-2.960937 1.472656-4.617187v-201.359375c0-1.578125-.46875-3.125-1.34375-4.4375l-7.710938-11.5625h57.054688v217.359375c.003906 1.65625.515625 3.269531 1.472656 4.617187zm-43.550781 57.222657c-2.816406-.222657-5.601563-.453125-8.585937-.847657-62.101563-7.394531-118.273438-40.4375-154.910157-91.125-36.636719-50.683593-50.390625-114.386718-37.9375-175.675781.847657 11.144531 2.304688 21.058594 3.609375 29.648438 4.960938 32.800781 9.648438 63.722656 33.808594 92 10.109375 11.914062 27.039062 31.839843 53.214844 34.777343 2.289062.25 4.59375.371094 6.894531.367188 21.460937-1.488281 42.398437-7.320312 61.539063-17.144531l3.605468-1.824219c4.984375-3.191406 10.707032-5.042969 16.617188-5.375h.222656v70.800781l-14.527344 20.566407c-1.734375 2.441406-1.957031 5.648437-.585937 8.304687 1.375 2.660156 4.121093 4.332031 7.113281 4.328125h96c2.988281 0 5.726562-1.667969 7.101562-4.324219 1.371094-2.652343 1.152344-5.851562-.574218-8.292969l-14.527344-20.566406v-222.816406c0-4.417969-3.582031-8-8-8h-80c-2.949219 0-5.660156 1.625-7.054688 4.226562-1.390624 2.601563-1.238281 5.757813.398438 8.214844l14.65625 21.960938v73.4375c-4.214844 1.761718-8.109375 3.425781-11.289062 4.839844-8.117188 3.664062-14.902344 6.976562-20.878907 9.890624-16.679687 8.160157-25.878906 12.628907-40.574219 13.429688-6.816406.34375-20.9375 1.089844-24.570312-4.414062-4.335938-6.609376 4.289062-23.738282 8.457031-32 3.296875-6.410157 7.230469-12.472657 11.734375-18.097657l7.683594-10.304687c12.160156-16.292969 24.726562-33.144532 29.246094-53.429688 3.871094-17.136718 2.632812-30.9375.160156-58.480468-1.074219-12.855469-2.890625-25.636719-5.449219-38.28125-1.253906-5.753907-2.097656-11.589844-2.519531-17.464844-.582031-13.707032 1.664062-27.386719 6.601562-40.191406 24.4375-9.527344 50.359376-14.671876 76.582032-15.199219 1.617187-.136719 3.21875-.136719 4.816406-.136719 29.566406-.011719 58.84375 5.835938 86.136719 17.207031 6.792969 11.585938 10.207031 24.839844 9.863281 38.265625-1.0625 12.890625-3.609375 25.617188-7.582031 37.929688-2.109375 6.105468-4.652344 12.054687-7.617188 17.796875-3.875 7.246093-6.769531 14.976562-8.609375 22.984375-3.277344 14.082031-6.992187 30.042968.625 45.386718 13.308594 22.585938 39.703125 33.96875 65.265625 28.152344 8.605469-2.550781 16.363281-7.382812 22.445313-13.984375 4.28125-5.078125 10.164062-8.546875 16.679687-9.832031 9.539063-.734375 19.042969 1.78125 26.96875 7.132812 7.050781 3.902344 13.445313 8.890626 18.945313 14.777344 0 .488282.128906.96875.160156 1.457032l.246094 3.449218c.304687 4.375.457031 8.796875.457031 13.277344-.011719 13.59375-1.253906 27.15625-3.71875 40.519531-14.980469-1.78125-30.109375-1.941406-45.121094-.480469-20.710937 1.472657-40.882812 7.28125-59.199219 17.058594-16.128906 8.910156-40.519531 22.398438-43.871093 45.78125-1.007813 9.90625 1.71875 19.828125 7.648437 27.824219 4.53125 6.550781 7.375 14.113281 8.277344 22.027344 1.601562 17.300781-7.457031 31.476562-14.773438 42.964843-5.207031 8.019532-11.527343 15.25-18.777343 21.480469-17.800781 4.5-36.089844 6.789063-54.449219 6.824219-6.398438 0-12.296875-.246094-18.078125-.800781zm215.277344-116.917969c-24.648438 45.738281-64.453125 81.46875-112.574219 101.054688.71875-1.046876 1.496094-2.0625 2.183594-3.136719 8.121094-12.734375 19.25-30.183594 17.160156-52.933594-1.121094-10.292969-4.722656-20.15625-10.488281-28.753906-4.019531-4.863281-6.023438-11.078125-5.601563-17.375 2.226563-15.503907 21.601563-26.214844 35.9375-34.128907 16.402344-8.703124 34.457032-13.832031 52.984375-15.046874 13.304688-1.308594 26.710938-1.226563 40 .246093-4.472656 17.425781-11.054687 34.242188-19.601562 50.074219zm0 0"/></svg>