<svg height="480pt" viewBox="-40 0 480 480" width="480pt" xmlns="http://www.w3.org/2000/svg"><path d="m360 0h-352c-4.417969 0-8 3.582031-8 8v464c0 4.417969 3.582031 8 8 8h352c22.082031-.027344 39.972656-17.917969 40-40v-400c-.027344-22.082031-17.917969-39.9726562-40-40zm24 440c0 13.253906-10.746094 24-24 24h-344v-448h344c13.253906 0 24 10.746094 24 24zm0 0"/><path d="m99.824219 255.441406c.0625.144532.128906.289063.207031.429688.097656.128906.242188.183594.335938.304687 24.242187 30.242188 60.90625 47.835938 99.667968 47.824219 38.757813-.011719 75.414063-17.625 99.636719-47.878906.089844-.105469.214844-.136719.296875-.25.078125-.140625.144531-.285156.207031-.429688 37.097657-46.464844 37.097657-112.417968 0-158.882812-.0625-.144532-.128906-.289063-.207031-.429688-.097656-.128906-.242188-.183594-.335938-.304687-24.234374-30.230469-60.886718-47.824219-99.632812-47.824219s-75.398438 17.59375-99.632812 47.824219c-.09375.121093-.238282.175781-.335938.304687-.078125.140625-.144531.285156-.207031.429688-37.097657 46.464844-37.097657 112.417968 0 158.882812zm8.414062-143.441406c6.058594 3.871094 12.441407 7.203125 19.082031 9.960938-4.191406 15.007812-6.566406 30.464843-7.074218 46.039062h-31.839844c1.410156-20.121094 8.265625-39.476562 19.832031-56zm203.355469 56h-31.839844c-.503906-15.585938-2.878906-31.054688-7.074218-46.070312 6.636718-2.753907 13.019531-6.074219 19.082031-9.929688 11.566406 16.523438 18.421875 35.878906 19.832031 56zm-19.832031 72c-6.054688-3.871094-12.4375-7.203125-19.074219-9.960938 4.183594-15.007812 6.554688-30.464843 7.066406-46.039062h31.839844c-1.410156 20.121094-8.265625 39.476562-19.832031 56zm-83.761719-56h55.761719c-.542969 13.753906-2.691407 27.394531-6.402344 40.648438-16.03125-4.839844-32.625-7.566407-49.359375-8.105469zm0-16v-32.335938c16.738281-.582031 33.328125-3.367187 49.335938-8.289062 3.71875 13.246094 5.875 26.878906 6.425781 40.625zm-16 0h-55.761719c.542969-13.746094 2.691407-27.378906 6.402344-40.625 16.019531 4.917969 32.613281 7.703125 49.359375 8.289062zm0 16v32.542969c-16.726562.539062-33.308594 3.261719-49.328125 8.105469-3.71875-13.253907-5.878906-26.894532-6.433594-40.648438zm0 48.496094v54.480468c-18.03125-4.144531-33.960938-21.976562-44.175781-47.199218 14.355469-4.304688 29.199219-6.753906 44.175781-7.28125zm16 54.480468v-54.472656c14.976562.535156 29.820312 2.980469 44.175781 7.28125-10.214843 25.214844-26.144531 43.046875-44.175781 47.191406zm0-167.472656v-54.480468c18.03125 4.144531 33.960938 21.976562 44.175781 47.199218-14.355469 4.300782-29.199219 6.75-44.175781 7.28125zm-16-54.480468v54.472656c-14.976562-.535156-29.820312-2.980469-44.175781-7.28125 10.214843-25.214844 26.144531-43.046875 44.175781-47.191406zm-71.753906 118.976562c.503906 15.585938 2.878906 31.054688 7.074218 46.070312-6.636718 2.753907-13.019531 6.074219-19.082031 9.929688-11.566406-16.523438-18.421875-35.878906-19.832031-56zm-1.804688 68.519531c4.476563-2.765625 9.152344-5.195312 13.992188-7.273437 4.195312 10.917968 9.902344 21.195312 16.949218 30.53125-11.578124-5.90625-22.050781-13.777344-30.941406-23.257813zm132.175782 23.257813c7.054687-9.335938 12.757812-19.613282 16.949218-30.539063 4.835938 2.085938 9.511719 4.515625 13.992188 7.273438-8.890625 9.488281-19.359375 17.359375-30.941406 23.265625zm30.984374-176.296875c-4.480468 2.765625-9.15625 5.195312-13.992187 7.273437-4.199219-10.917968-9.90625-21.195312-16.953125-30.53125 11.582031 5.90625 22.050781 13.777344 30.945312 23.257813zm-132.21875-23.257813c-7.054687 9.335938-12.757812 19.613282-16.949218 30.539063-4.835938-2.085938-9.511719-4.515625-13.992188-7.273438 8.890625-9.488281 19.359375-17.359375 30.941406-23.265625zm0 0"/><path d="m328 336h-256c-4.417969 0-8 3.582031-8 8v80c0 4.417969 3.582031 8 8 8h256c4.417969 0 8-3.582031 8-8v-80c0-4.417969-3.582031-8-8-8zm-8 80h-240v-64h240zm0 0"/></svg>