<svg height="480pt" viewBox="0 0 480 480" width="480pt" xmlns="http://www.w3.org/2000/svg"><path d="m440 64h-64v-8c-.039062-30.910156-25.089844-55.9609375-56-56h-96c-30.910156.0390625-55.960938 25.089844-56 56v8h-64c-22.082031.027344-39.972656 17.917969-40 40v136h-24c-22.082031.027344-39.9726562 17.917969-40 40v160c.0273438 22.082031 17.917969 39.972656 40 40h256c22.082031-.027344 39.972656-17.917969 40-40v-72h104c22.082031-.027344 39.972656-17.917969 40-40v-224c-.027344-22.082031-17.917969-39.972656-40-40zm-256-8c.027344-22.082031 17.917969-39.972656 40-40h96c22.082031.027344 39.972656 17.917969 40 40v8h-176zm136 384c0 13.253906-10.746094 24-24 24h-256c-13.253906 0-24-10.746094-24-24v-160c0-13.253906 10.746094-24 24-24h256c13.253906 0 24 10.746094 24 24zm-88-200h-128v-8c0-13.253906 10.746094-24 24-24h80c13.253906 0 24 10.746094 24 24zm232 88c0 13.253906-10.746094 24-24 24h-104v-72c-.027344-22.082031-17.917969-39.972656-40-40h-48v-8c-.027344-22.082031-17.917969-39.972656-40-40h-80c-22.082031.027344-39.972656 17.917969-40 40v8h-8v-136c0-13.253906 10.746094-24 24-24h336c13.253906 0 24 10.746094 24 24zm0 0"/><path d="m272 96c-4.417969 0-8 3.582031-8 8v112c0 4.417969 3.582031 8 8 8s8-3.582031 8-8v-112c0-4.417969-3.582031-8-8-8zm0 0"/><path d="m368 96c-4.417969 0-8 3.582031-8 8v224c0 4.417969 3.582031 8 8 8s8-3.582031 8-8v-224c0-4.417969-3.582031-8-8-8zm0 0"/><path d="m176 96c-4.417969 0-8 3.582031-8 8v64c0 4.417969 3.582031 8 8 8s8-3.582031 8-8v-64c0-4.417969-3.582031-8-8-8zm0 0"/></svg>