<svg height="480pt" viewBox="0 0 480 480" width="480pt" xmlns="http://www.w3.org/2000/svg"><path d="m472 0h-192c-4.417969 0-8 3.582031-8 8v32c.042969 10.132812 6.445312 19.148438 16 22.527344v49.472656h-96v-49.472656c9.554688-3.378906 15.957031-12.394532 16-22.527344v-32c0-4.417969-3.582031-8-8-8h-192c-4.417969 0-8 3.582031-8 8v32c.0429688 10.132812 6.445312 19.148438 16 22.527344v297.472656c0 13.253906 10.746094 24 24 24h8v49.472656c-9.554688 3.378906-15.957031 12.394532-16 22.527344v16c0 4.417969 3.582031 8 8 8h128c4.417969 0 8-3.582031 8-8v-16c-.042969-10.132812-6.445312-19.148438-16-22.527344v-49.472656h8c13.253906 0 24-10.746094 24-24v-40h96v40c0 13.253906 10.746094 24 24 24h8v49.472656c-9.554688 3.378906-15.957031 12.394532-16 22.527344v16c0 4.417969 3.582031 8 8 8h128c4.417969 0 8-3.582031 8-8v-16c-.042969-10.132812-6.445312-19.148438-16-22.527344v-49.472656h8c13.253906 0 24-10.746094 24-24v-297.472656c9.554688-3.378906 15.957031-12.394532 16-22.527344v-32c0-4.417969-3.582031-8-8-8zm-456 16h176v24c0 4.417969-3.582031 8-8 8h-160c-4.417969 0-8-3.582031-8-8zm144 448h-112v-8c0-4.417969 3.582031-8 8-8h96c4.417969 0 8 3.582031 8 8zm-16-32h-80v-48h80zm32-72c0 4.417969-3.582031 8-8 8h-128c-4.417969 0-8-3.582031-8-8v-296h144zm16-56v-176h96v176zm240 160h-112v-8c0-4.417969 3.582031-8 8-8h96c4.417969 0 8 3.582031 8 8zm-16-32h-80v-48h80zm32-72c0 4.417969-3.582031 8-8 8h-128c-4.417969 0-8-3.582031-8-8v-296h144zm16-320c0 4.417969-3.582031 8-8 8h-160c-4.417969 0-8-3.582031-8-8v-24h176zm0 0"/><path d="m264 208h-48c-4.417969 0-8 3.582031-8 8s3.582031 8 8 8h48c4.417969 0 8-3.582031 8-8s-3.582031-8-8-8zm0 0"/><path d="m264 256h-48c-4.417969 0-8 3.582031-8 8s3.582031 8 8 8h48c4.417969 0 8-3.582031 8-8s-3.582031-8-8-8zm0 0"/><path d="m264 160h-48c-4.417969 0-8 3.582031-8 8s3.582031 8 8 8h48c4.417969 0 8-3.582031 8-8s-3.582031-8-8-8zm0 0"/></svg>