<svg height="480pt" viewBox="-36 0 480 480" width="480pt" xmlns="http://www.w3.org/2000/svg"><path d="m389.140625 430.398438c-7.203125-6.515626-15.988281-11.03125-25.480469-13.09375 8.132813-24.394532 4.042969-51.214844-10.988281-72.078126-15.035156-20.863281-39.183594-33.226562-64.898437-33.226562-5.378907.015625-10.738282.578125-16 1.679688v-170.152344c37.867187-4.355469 65.78125-37.472656 63.660156-75.535156-2.121094-38.058594-33.542969-67.871094-71.660156-67.992188h-192c-38.121094.121094-69.539063 29.933594-71.660157 67.992188-2.125 38.0625 25.789063 71.179687 63.660157 75.535156v328.472656c0 4.417969 3.582031 8 8 8h328c4.417968 0 8-3.582031 8-8 .015624-15.890625-6.765626-31.03125-18.632813-41.601562zm-373.367187-358.398438c.035156-30.914062 25.085937-55.964844 56-56h192c30.925781 0 56 25.070312 56 56s-25.074219 56-56 56c-30.929688 0-56-25.070312-56-56 0-10.03125 6.238281-19.003906 15.636718-22.496094 9.402344-3.492187 19.988282-.773437 26.535156 6.824219 6.550782 7.59375 7.6875 18.460937 2.851563 27.246094-2.136719 3.871093-.726563 8.742187 3.144531 10.875 1.179688.65625 2.503906 1 3.855469 1 2.914063 0 5.597656-1.585938 7.007813-4.136719 8.070312-14.640625 6.179687-32.757812-4.734376-45.421875-10.914062-12.664063-28.550781-17.203125-44.222656-11.382813-15.675781 5.820313-26.074218 20.773438-26.074218 37.492188.003906 21.769531 9.878906 42.363281 26.847656 56h-101.695313c16.96875-13.636719 26.839844-34.230469 26.847657-56-.007813-16.816406-10.535157-31.835938-26.34375-37.578125-15.804688-5.742187-33.515626-.984375-44.316407 11.90625s-12.386719 31.164063-3.964843 45.71875c2.273437 3.679687 7.0625 4.882813 10.804687 2.71875 3.746094-2.164063 5.09375-6.910156 3.042969-10.71875-5.050782-8.730469-4.101563-19.691406 2.375-27.421875 6.480468-7.734375 17.101562-10.59375 26.582031-7.152344 9.484375 3.4375 15.804687 12.441406 15.820313 22.527344 0 30.929688-25.074219 56-56 56-30.929688 0-56-25.070312-56-56zm64 72h176v174.710938c-.410157.175781-.800782.410156-1.210938.59375-1.007812.464843-1.988281.976562-2.980469 1.480468-1.355469.6875-2.699219 1.390625-4 2.160156-.976562.566407-1.929687 1.167969-2.882812 1.773438-1.253907.800781-2.496094 1.648438-3.703125 2.527344-.917969.664062-1.824219 1.347656-2.71875 2.050781-1.167969.925781-2.296875 1.886719-3.410156 2.871094-.847657.753906-1.695313 1.503906-2.511719 2.296875-1.078125 1.039062-2.101563 2.121094-3.128907 3.199218-.757812.800782-1.527343 1.601563-2.253906 2.472657-1.007812 1.183593-1.945312 2.398437-2.878906 3.65625-.648438.839843-1.3125 1.664062-1.921875 2.535156-.976563 1.398437-1.871094 2.863281-2.757813 4.335937-.464843.800782-.976562 1.511719-1.417968 2.296876-1.289063 2.28125-2.460938 4.628906-3.511719 7.03125-9.398437.1875-18.589844 2.777343-26.703125 7.519531-17.316406 10.011719-27.988281 28.488281-28.007812 48.488281 0 1.753906.082031 3.503906.246093 5.246094-9.113281 4.253906-16.890625 10.917968-22.488281 19.273437-.285156.417969-.574219.800781-.847656 1.257813-1.289063 2-2.457032 4.082031-3.488282 6.230468-.167968.367188-.3125.746094-.480468 1.113282-.902344 2.007812-1.6875 4.070312-2.34375 6.175781-.101563.335937-.230469.664063-.335938 1.007813-.660156 2.296874-1.171875 4.636718-1.535156 7-.039062.238281-.121094.464843-.152344.695312h-48.574218zm64.871093 320c.386719-1.964844.921875-3.894531 1.601563-5.777344.191406-.519531.429687-1.015625.644531-1.527344.640625-1.546874 1.382813-3.050781 2.21875-4.503906.3125-.542968.613281-1.085937.949219-1.597656 4.90625-7.90625 12.460937-13.816406 21.3125-16.671875 6.175781-1.976563 12.734375-2.449219 19.128906-1.378906 4.660156.777343 9.136719 2.402343 13.207031 4.800781 3.808594 2.246094 8.710938.980469 10.957031-2.828125 2.246094-3.804687.980469-8.710937-2.828124-10.957031-5.773438-3.414063-12.128907-5.730469-18.742188-6.832032h-.050781c-5.695313-.871093-11.488281-.898437-17.191407-.078124-.078124-.207032-.078124-.433594-.078124-.648438.023437-14.296875 7.671874-27.496094 20.0625-34.632812 6.035156-3.5625 12.925781-5.417969 19.9375-5.367188 1.019531-.003906 2.039062.054688 3.054687.175781h.214844c.058593.019531.117187.035157.175781.046875 15.617188 1.265625 29.023438 11.613282 34.203125 26.402344 1.121094 3.210938 4.148437 5.359375 7.550781 5.359375.898438 0 1.792969-.152344 2.640625-.457031 4.164063-1.457032 6.363281-6.015625 4.910157-10.183594-6.003907-17.054688-19.925782-30.121094-37.328126-35.03125 7.496094-14.289062 20.097657-25.226562 35.296876-30.632812 6.824218-2.457032 14.027343-3.703126 21.28125-3.679688 21.367187-.078125 41.355468 10.554688 53.234374 28.316406 11.878907 17.761719 14.074219 40.292969 5.84375 60.011719-8.160156.660156-16.066406 3.140625-23.144531 7.257813-3.804687 2.242187-5.070312 7.148437-2.828125 10.953124 2.246094 3.808594 7.152344 5.074219 10.957032 2.828126 6.167968-3.609376 13.207031-5.464844 20.351562-5.367188 18.820312.285156 34.929688 13.578125 38.785156 32zm0 0"/><path d="m167.773438 352c4.417968 0 8-3.582031 8-8v-160c0-4.417969-3.582032-8-8-8-4.417969 0-8 3.582031-8 8v160c0 4.417969 3.582031 8 8 8zm0 0"/><path d="m119.773438 176c-4.417969 0-8 3.582031-8 8v240c0 4.417969 3.582031 8 8 8 4.417968 0 8-3.582031 8-8v-240c0-4.417969-3.582032-8-8-8zm0 0"/><path d="m215.773438 304c4.417968 0 8-3.582031 8-8v-112c0-4.417969-3.582032-8-8-8-4.417969 0-8 3.582031-8 8v112c0 4.417969 3.582031 8 8 8zm0 0"/></svg>