<svg height="480pt" viewBox="0 0 480 480.09831" width="480pt" xmlns="http://www.w3.org/2000/svg"><path d="m368.148438 176c4.417968 0 8-3.582031 8-8v-96c0-4.417969-3.582032-8-8-8h-256c-4.417969 0-8 3.582031-8 8v96c0 4.417969 3.582031 8 8 8zm-8-16h-112v-80h112zm-240-80h112v80h-112zm0 0"/><path d="m477.804688 466.34375-114.34375-114.34375h20.6875c13.253906 0 24-10.746094 24-24v-240c-.035157-30.914062-25.085938-55.964844-56-56h-40v-8c0-13.253906-10.746094-24-24-24h-96c-13.253907 0-24 10.746094-24 24v8h-40c-30.914063.035156-55.964844 25.085938-56 56v240c0 13.253906 10.746093 24 24 24h20.6875l-114.34375 114.34375c-2.082032 2.007812-2.914063 4.984375-2.183594 7.78125.734375 2.796875 2.917968 4.980469 5.714844 5.710938 2.796874.734374 5.769531-.101563 7.78125-2.179688l125.65625-125.65625h201.375l125.65625 125.65625c3.136718 3.03125 8.128906 2.988281 11.214843-.097656 3.085938-3.085938 3.128907-8.074219.097657-11.214844zm-293.65625-442.34375c0-4.417969 3.582031-8 8-8h96c4.417968 0 8 3.582031 8 8v8h-112zm-96 304v-240c.027343-22.082031 17.917968-39.972656 40-40h224c22.078124.027344 39.972656 17.917969 40 40v240c0 4.417969-3.582032 8-8 8h-288c-4.417969 0-8-3.582031-8-8zm0 0"/><path d="m360.148438 320v-80c0-4.417969-3.582032-8-8-8h-224c-4.417969 0-8 3.582031-8 8v80c0 4.417969 3.582031 8 8 8h224c4.417968 0 8-3.582031 8-8zm-16-8h-208v-64h208zm0 0"/><path d="m176.148438 304c13.253906 0 24-10.746094 24-24s-10.746094-24-24-24c-13.253907 0-24 10.746094-24 24s10.746093 24 24 24zm0-32c4.417968 0 8 3.582031 8 8s-3.582032 8-8 8c-4.417969 0-8-3.582031-8-8s3.582031-8 8-8zm0 0"/><path d="m304.148438 304c13.253906 0 24-10.746094 24-24s-10.746094-24-24-24c-13.253907 0-24 10.746094-24 24s10.746093 24 24 24zm0-32c4.417968 0 8 3.582031 8 8s-3.582032 8-8 8c-4.417969 0-8-3.582031-8-8s3.582031-8 8-8zm0 0"/><path d="m328.148438 384c4.417968 0 8-3.582031 8-8s-3.582032-8-8-8h-176c-4.417969 0-8 3.582031-8 8s3.582031 8 8 8zm0 0"/><path d="m104.148438 424c0 4.417969 3.582031 8 8 8h256c4.417968 0 8-3.582031 8-8s-3.582032-8-8-8h-256c-4.417969 0-8 3.582031-8 8zm0 0"/><path d="m416.148438 464h-352c-4.417969 0-8 3.582031-8 8s3.582031 8 8 8h352c4.417968 0 8-3.582031 8-8s-3.582032-8-8-8zm0 0"/></svg>