<svg height="482pt" viewBox="0 0 482 482.28276" width="482pt" xmlns="http://www.w3.org/2000/svg"><path d="m433.191406 49.222656c-60.058594-60.101562-155.550781-65.867187-222.40625-13.433594-66.859375 52.4375-84.011718 146.550782-39.953125 219.203126l-26.105469 26.167968-5.671874-5.679687c-3.121094-3.125-8.1875-3.125-11.308594 0l-111.203125 111.199219c-21.871094 21.871093-21.871094 57.328124 0 79.199218 21.871093 21.871094 57.332031 21.871094 79.203125 0l111.199218-111.199218c3.121094-3.125 3.121094-8.1875 0-11.3125l-5.679687-5.671876 26.125-26.070312c72.664063 44.046875 166.777344 26.886719 219.21875-39.972656s46.683594-162.351563-13.410156-222.429688zm-348.765625 405.335938c-15.640625 15.503906-40.875 15.449218-56.445312-.121094-15.574219-15.574219-15.628907-40.804688-.125-56.445312l105.542969-105.542969 56.570312 56.566406zm105.519531-128.160156-33.929687-33.925782 23.808594-23.855468c.945312 1.253906 1.992187 2.445312 2.976562 3.679687.863281 1.085937 1.726563 2.167969 2.617188 3.238281 3.199219 3.863282 6.597656 7.648438 10.191406 11.25 3.589844 3.597656 7.367187 6.933594 11.199219 10.167969 1.078125.902344 2.175781 1.765625 3.273437 2.648437 1.230469.972657 2.398438 2.023438 3.664063 2.957032zm231.933594-50.902344c-59.335937 59.28125-155.488281 59.25-214.789062-.070313-59.300782-59.316406-59.300782-155.472656 0-214.789062 59.300781-59.316407 155.453125-59.347657 214.789062-.070313 59.050782 59.464844 59.050782 155.433594 0 214.898438zm0 0"/><path d="m399.273438 83.144531c-46.855469-46.816406-122.785157-46.792969-169.613282.050781-46.828125 46.839844-46.828125 122.769532 0 169.609376 46.828125 46.84375 122.757813 46.863281 169.613282.050781 46.789062-46.894531 46.789062-122.816407 0-169.710938zm-11.3125 158.398438c-40.617188 40.613281-106.464844 40.609375-147.074219-.003907-40.613281-40.617187-40.613281-106.460937 0-147.078124 40.609375-40.613282 106.457031-40.617188 147.074219-.003907 40.546874 40.644531 40.546874 106.441407 0 147.085938zm0 0"/></svg>