<svg height="480pt" viewBox="0 -1 480 479" width="480pt" xmlns="http://www.w3.org/2000/svg"><path d="m475.34375 161.359375c-2.835938-1.304687-6.171875-.839844-8.542969 1.191406l-98.800781 84.6875v-78.613281c0-4.417969-3.582031-8-8-8h-37.558594c31.488282-22.015625 45.054688-61.910156 33.515625-98.554688-11.539062-36.644531-45.519531-61.570312-83.9375-61.570312s-72.398437 24.925781-83.9375 61.570312c-11.539062 36.644532 2.03125 76.539063 33.519531 98.554688h-75.121093c31.476562-22.019531 45.035156-61.914062 33.492187-98.554688-11.542968-36.636718-45.519531-61.554687-83.933594-61.554687-38.414062 0-72.390624 24.917969-83.933593 61.554687-11.542969 36.640626 2.015625 76.535157 33.496093 98.554688h-37.601562c-4.417969 0-8 3.582031-8 8v240c0 4.417969 3.582031 8 8 8h22.054688l-19.46875 19.460938c-9.378907 9.378906-9.378907 24.578124 0 33.953124 9.375 9.375 24.574218 9.375 33.949218 0l53.386719-53.414062h262.078125c4.417969 0 8-3.582031 8-8v-78.617188l98.800781 84.6875c2.371094 2.027344 5.707031 2.492188 8.542969 1.1875 2.835938-1.304687 4.652344-4.136718 4.65625-7.257812v-240c0-3.125-1.820312-5.960938-4.65625-7.265625zm-275.34375-72.734375c0-39.765625 32.234375-72 72-72s72 32.234375 72 72c0 39.761719-32.234375 72-72 72-39.746094-.046875-71.957031-32.253906-72-72zm-176 0c0-39.765625 32.234375-72 72-72s72 32.234375 72 72c0 39.761719-32.234375 72-72 72-39.746094-.046875-71.957031-32.253906-72-72zm142.664062 244c-8.195312-3.964844-14.804687-10.59375-18.742187-18.800781-8.792969-18.351563-2.402344-40.378907 14.847656-51.179688 17.246094-10.800781 39.851563-6.929687 52.523438 8.992188s11.371093 38.820312-3.019531 53.203125c-11.992188 12.046875-30.300782 15.171875-45.609376 7.785156zm-133.441406 126.101562c-3.171875 3.019532-8.152344 3.019532-11.328125 0-1.5-1.5-2.34375-3.535156-2.34375-5.660156 0-2.121094.84375-4.15625 2.34375-5.660156l117.304688-117.183594c3.234375 4.203125 6.996093 7.96875 11.199219 11.199219zm318.777344-58.101562h-238.0625l51.199219-51.289062c6.027343 2.175781 12.390625 3.289062 18.800781 3.289062 30.921875-.035156 55.992188-25.078125 56.0625-56 .035156-22.308594-13.183594-42.503906-33.636719-51.398438-20.457031-8.894531-44.242187-4.792968-60.53125 10.445313-16.292969 15.234375-21.980469 38.691406-14.472656 59.695313l-85.3125 85.257812h-30.046875v-224h336zm112-9.394531-96-82.285157v-40.640624l96-82.289063zm0 0"/><path d="m96 56.625c-17.671875 0-32 14.324219-32 32 0 17.671875 14.328125 32 32 32s32-14.328125 32-32c0-17.675781-14.328125-32-32-32zm0 48c-8.835938 0-16-7.164062-16-16s7.164062-16 16-16 16 7.164062 16 16-7.164062 16-16 16zm0 0"/><path d="m272 56.625c-17.671875 0-32 14.324219-32 32 0 17.671875 14.328125 32 32 32s32-14.328125 32-32c0-17.675781-14.328125-32-32-32zm0 48c-8.835938 0-16-7.164062-16-16s7.164062-16 16-16 16 7.164062 16 16-7.164062 16-16 16zm0 0"/><path d="m272 48.625c4.417969 0 8-3.582031 8-8v-8c0-4.417969-3.582031-8-8-8s-8 3.582031-8 8v8c0 4.417969 3.582031 8 8 8zm0 0"/><path d="m96 48.625c4.417969 0 8-3.582031 8-8v-8c0-4.417969-3.582031-8-8-8s-8 3.582031-8 8v8c0 4.417969 3.582031 8 8 8zm0 0"/><path d="m129.9375 62.6875c2.121094 0 4.15625-.84375 5.65625-2.34375l5.664062-5.664062c3.03125-3.140626 2.988282-8.128907-.097656-11.214844-3.085937-3.085938-8.078125-3.128906-11.214844-.097656l-5.664062 5.664062c-2.289062 2.289062-2.972656 5.730469-1.734375 8.71875s4.152344 4.9375 7.390625 4.9375zm0 0"/><path d="m160 88.625c0-4.417969-3.582031-8-8-8h-8c-4.417969 0-8 3.582031-8 8s3.582031 8 8 8h8c4.417969 0 8-3.582031 8-8zm0 0"/><path d="m135.59375 116.902344c-3.140625-3.03125-8.128906-2.988282-11.214844.097656-3.085937 3.085938-3.128906 8.078125-.097656 11.214844l5.664062 5.664062c3.136719 3.03125 8.128907 2.988282 11.214844-.097656 3.085938-3.085938 3.128906-8.074219.097656-11.214844zm0 0"/><path d="m96 128.625c-4.417969 0-8 3.582031-8 8v8c0 4.417969 3.582031 8 8 8s8-3.582031 8-8v-8c0-4.417969-3.582031-8-8-8zm0 0"/><path d="m56.40625 116.902344-5.664062 5.664062c-2.078126 2.011719-2.910157 4.984375-2.179688 7.78125s2.917969 4.980469 5.714844 5.714844c2.796875.730469 5.769531-.101562 7.777344-2.183594l5.664062-5.664062c3.03125-3.136719 2.988281-8.128906-.097656-11.214844-3.085938-3.085938-8.074219-3.128906-11.214844-.097656zm0 0"/><path d="m56 88.625c0-4.417969-3.582031-8-8-8h-8c-4.417969 0-8 3.582031-8 8s3.582031 8 8 8h8c4.417969 0 8-3.582031 8-8zm0 0"/><path d="m56.40625 60.34375c3.140625 3.03125 8.128906 2.988281 11.214844-.097656 3.085937-3.085938 3.128906-8.074219.097656-11.214844l-5.664062-5.664062c-3.136719-3.03125-8.128907-2.988282-11.214844.097656-3.085938 3.085937-3.128906 8.074218-.097656 11.214844zm0 0"/><path d="m305.9375 62.6875c2.121094 0 4.15625-.84375 5.65625-2.34375l5.664062-5.664062c2.078126-2.007813 2.910157-4.984376 2.179688-7.78125-.730469-2.796876-2.917969-4.980469-5.714844-5.710938-2.796875-.734375-5.769531.101562-7.777344 2.179688l-5.664062 5.664062c-2.289062 2.289062-2.972656 5.730469-1.734375 8.71875s4.152344 4.9375 7.390625 4.9375zm0 0"/><path d="m336 88.625c0-4.417969-3.582031-8-8-8h-8c-4.417969 0-8 3.582031-8 8s3.582031 8 8 8h8c4.417969 0 8-3.582031 8-8zm0 0"/><path d="m311.59375 116.902344c-3.140625-3.03125-8.128906-2.988282-11.214844.097656-3.085937 3.085938-3.128906 8.078125-.097656 11.214844l5.664062 5.664062c2.007813 2.082032 4.980469 2.914063 7.777344 2.183594 2.796875-.734375 4.984375-2.917969 5.714844-5.714844s-.101562-5.769531-2.179688-7.78125zm0 0"/><path d="m272 128.625c-4.417969 0-8 3.582031-8 8v8c0 4.417969 3.582031 8 8 8s8-3.582031 8-8v-8c0-4.417969-3.582031-8-8-8zm0 0"/><path d="m232.40625 116.902344-5.664062 5.664062c-2.078126 2.011719-2.910157 4.984375-2.179688 7.78125s2.917969 4.980469 5.714844 5.714844c2.796875.730469 5.769531-.101562 7.777344-2.183594l5.664062-5.664062c2.082031-2.007813 2.914062-4.980469 2.183594-7.777344-.734375-2.800781-2.917969-4.984375-5.714844-5.714844-2.796875-.734375-5.769531.101563-7.78125 2.179688zm0 0"/><path d="m232 88.625c0-4.417969-3.582031-8-8-8h-8c-4.417969 0-8 3.582031-8 8s3.582031 8 8 8h8c4.417969 0 8-3.582031 8-8zm0 0"/><path d="m232.40625 60.34375c2.011719 2.078125 4.984375 2.914062 7.78125 2.179688 2.796875-.730469 4.980469-2.914063 5.714844-5.710938.730468-2.796875-.101563-5.773438-2.183594-7.78125l-5.664062-5.664062c-3.136719-3.03125-8.128907-2.988282-11.214844.097656-3.085938 3.085937-3.128906 8.074218-.097656 11.214844zm0 0"/></svg>