<svg height="480pt" viewBox="0 0 480.06179 480" width="480pt" xmlns="http://www.w3.org/2000/svg"><path d="m423.6875 304.488281c-2.164062-23.054687-14.230469-44.035156-33.070312-57.496093 31.304687-38.144532 33.957031-92.28125 6.53125-133.304688-27.425782-41.019531-78.46875-59.257812-125.679688-44.910156-47.210938 14.351562-79.46875 57.910156-79.429688 107.253906 0 1.09375 0 2.398438.066407 3.734375-16.550781 8.699219-30.488281 21.648437-40.371094 37.519531-1.597656.242188-3.085937.503906-4.476563.800782-36.789062 7.574218-66.671874 34.335937-78.234374 70.074218-20.414063 1.058594-38.625 13.183594-47.476563 31.613282-8.851563 18.425781-6.933594 40.21875 4.996094 56.816406-21.292969 13.136718-31.261719 38.824218-24.402344 62.882812 6.863281 24.0625 28.878906 40.628906 53.898437 40.558594h288c29.144532-.078125 54.574219-19.792969 61.914063-48h10.085937c33.867188.011719 61.878907-26.363281 63.90625-60.167969 2.027344-33.808593-22.632812-63.339843-56.257812-67.375zm-119.648438-224.457031c37.585938.011719 71.707032 21.957031 87.308594 56.152344 15.601563 34.195312 9.8125 74.347656-14.8125 102.742187-1.296875-.574219-2.65625-1.015625-4-1.527343-.664062-.246094-1.304687-.527344-1.976562-.757813-3.5-1.246094-7.085938-2.246094-10.726563-2.992187h-.078125c-3.484375-.679688-7.003906-1.125-10.546875-1.335938-.800781-.058594-1.597656-.097656-2.398437-.128906-.800782-.03125-1.847656-.152344-2.769532-.152344-2.648437 0-5.277343.128906-7.863281.375-15.984375-39-53.984375-64.445312-96.136719-64.375-3.367187 0-6.6875.207031-9.992187.519531-.949219.089844-1.902344.214844-2.847656.328125-2.511719.304688-5.007813.703125-7.472657 1.183594-.855468.175781-1.71875.320312-2.566406.503906-3.0625.6875-6.097656 1.464844-9.070312 2.402344 1.714844-51.773438 44.148437-92.875 95.949218-92.9375zm40 384h-288c-18.484374-.015625-34.550781-12.695312-38.863281-30.667969-4.3125-17.976562 4.253907-36.566406 20.71875-44.964843l.175781.113281c2.15625 1.652343 4.433594 3.140625 6.808594 4.457031.351563.191406.6875.40625 1.050782.597656 2.332031 1.242188 4.757812 2.3125 7.246093 3.199219.480469.167969.953125.335937 1.433594.488281 2.523437.832032 5.101563 1.480469 7.71875 1.9375.40625.070313.800781.121094 1.246094.183594 2.804687.429688 5.632812.648438 8.464843.65625 4.417969 0 8-3.582031 8-8s-3.582031-8-8-8c-22.058593-.074219-39.925781-17.941406-40-40 .027344-22.082031 17.921876-39.972656 40-40 .550782-.027344 1.101563-.011719 1.648438.046875.28125.046875.570312.082031.855469.105469 10.125.574218 19.640625 5.019531 26.578125 12.414062 3.058594 3.0625 7.996094 3.140625 11.148437.171875 3.148438-2.96875 3.367188-7.902343.492188-11.136719-7.347657-7.804687-16.796875-13.316406-27.203125-15.875 10.539062-28.65625 35.136718-49.835937 65.042968-56 2.285157-.5 4.601563-.855468 6.933594-1.0625 3.484375-.445312 6.992188-.667968 10.503906-.664062 2.769532 0 5.496094.167969 8.199219.414062.707031.066407 1.402344.160157 2.105469.242188 2.144531.253906 4.28125.574219 6.398438.976562.570312.109376 1.136718.207032 1.699218.328126 5.394532 1.144531 10.671875 2.796874 15.757813 4.933593l.328125.144531c2.3125.992188 4.570312 2.097657 6.777344 3.273438l1.457031.800781c1.796875 1.007813 3.550781 2.085938 5.277343 3.199219.601563.398438 1.21875.800781 1.816407 1.191406.800781.558594 1.601562 1.175782 2.34375 1.757813 2.261719 1.660156 4.433593 3.429687 6.511719 5.304687.800781.753906 1.6875 1.488282 2.496093 2.273438 2.683594 2.582031 5.191407 5.335937 7.511719 8.246094 4.386719 5.476562 8.09375 11.460937 11.042969 17.824218.292969.640625.628906 1.257813.917969 1.90625.746093 1.710938 1.390624 3.480469 2.03125 5.246094 3.511718 9.59375 5.316406 19.722656 5.328124 29.9375 0 4.417969 3.582032 8 8 8 4.417969 0 8-3.582031 8-8-.03125-8.042969-.992187-16.054688-2.871093-23.871094.960937 0 1.902343-.128906 2.871093-.128906 32.484376.046875 59.792969 24.398438 63.546876 56.664062-10.652344 1.359376-20.78125 5.402344-29.441407 11.75-3.5625 2.621094-4.328125 7.628907-1.707031 11.191407 2.617188 3.558593 7.625 4.324219 11.1875 1.707031 8.222656-6.078125 18.1875-9.34375 28.414062-9.3125 23.941407.105469 44.171876 17.777344 47.496094 41.488281.367188 2.148438.539063 4.328125.503906 6.511719.027344 2.304688-.160156 4.609375-.558593 6.878906-3.445313 23.566406-23.625 41.058594-47.441407 41.121094zm72-48h-8c.042969-3.054688-.199218-6.109375-.71875-9.121094-4.183593-28.589844-26.957031-50.855468-55.632812-54.398437-3.933594-41.0625-38.398438-72.425781-79.648438-72.480469-2.65625 0-5.285156.128906-7.878906.375-.472656-1.136719-1.015625-2.222656-1.519531-3.34375-.746094-1.597656-1.511719-3.253906-2.34375-4.847656-.585937-1.128906-1.195313-2.246094-1.824219-3.351563-.898437-1.601562-1.847656-3.128906-2.832031-4.65625-.632813-.992187-1.242187-2.007812-1.914063-2.976562-1.421874-2.0625-2.925781-4.078125-4.503906-6.039063l-.09375-.113281c-2.730468-3.378906-5.671875-6.585937-8.800781-9.597656-.976563-.953125-2.015625-1.839844-3.03125-2.753907-2.417969-2.171874-4.933594-4.222656-7.554687-6.160156-.597657-.441406-1.117188-.984375-1.726563-1.40625-.421875-.304687-.878906-.570312-1.3125-.867187-.429687-.292969-1.0625-.703125-1.597656-1.054688-1.195313-.800781-2.402344-1.597656-3.601563-2.351562-.734375-.449219-1.496094-.800781-2.238281-1.253907l-1.089844-.609374-1.03125-.578126c-.800781-.429687-1.601562-.894531-2.402343-1.308593-.796876-.417969-1.839844-.859375-2.765626-1.289063-1.402343-.65625-2.808593-1.328125-4.242187-1.921875-1.007813-.414062-2.03125-.800781-3.046875-1.160156-1.382812-.527344-2.765625-1.046875-4.175781-1.511719-1.070313-.351562-2.152344-.648437-3.199219-.96875-1.390625-.398437-2.785156-.796875-4.191406-1.148437-1.105469-.273438-2.21875-.503907-3.328125-.738281l-1.234375-.28125c-1.007813-.199219-2.015625-.382813-3.03125-.550782-1.144532-.191406-2.289063-.351562-3.4375-.503906-1.152344-.152344-2.066406-.296875-3.105469-.40625-.410156 0-.800781-.058594-1.242187-.097656-1.148438-.105469-2.300782-.183594-3.460938-.246094-.714844-.050781-1.417969-.136719-2.136719-.160156 8.570313-10.386719 19.378907-18.695313 31.617188-24.3125 22.640625-10.191406 48.527343-10.355469 71.296875-.457032 22.769531 9.902344 40.304687 28.949219 48.292968 52.457032 1.273438 3.785156 5.144532 6.054687 9.074219 5.3125 3.828125-.734375 7.714844-1.109375 11.613281-1.121094 2.863282.007812 5.71875.203125 8.554688.589844 7.703125 1.019531 15.148438 3.460937 21.957031 7.203125 18.332031 9.929687 30.648438 28.195312 32.992188 48.910156-10.636719 1.367187-20.75 5.410156-29.398438 11.753906-3.5625 2.617188-4.328125 7.625-1.707031 11.1875 2.617188 3.558594 7.625 4.324219 11.1875 1.707031 16.777344-12.359374 39.613281-12.480468 56.523438-.296874 16.910156 12.179687 24.023437 33.882812 17.613281 53.710937-6.410157 19.828125-24.882813 33.253906-45.722657 33.234375zm0 0"/><path d="m304.039062 48.03125c4.417969 0 8-3.582031 8-8v-32c0-4.417969-3.582031-8-8-8-4.417968 0-8 3.582031-8 8v32c0 4.417969 3.582032 8 8 8zm0 0"/><path d="m240.039062 65.183594c3.828126-2.210938 5.136719-7.101563 2.929688-10.929688l-16-27.71875c-2.226562-3.792968-7.09375-5.082031-10.902344-2.882812-3.808594 2.199218-5.128906 7.058594-2.953125 10.882812l16 27.71875c2.207031 3.828125 7.101563 5.136719 10.925781 2.929688zm0 0"/><path d="m193.191406 112.03125c2.210938-3.828125.898438-8.71875-2.925781-10.929688l-27.722656-16c-3.820313-2.171874-8.683594-.851562-10.882813 2.957032-2.195312 3.808594-.910156 8.675781 2.882813 10.898437l27.722656 16c3.824219 2.210938 8.71875.898438 10.925781-2.925781zm0 0"/><path d="m176.039062 176.03125c0-4.417969-3.582031-8-8-8h-32c-4.417968 0-8 3.582031-8 8s3.582032 8 8 8h32c4.417969 0 8-3.582031 8-8zm0 0"/><path d="m414.886719 240.03125c-2.207031 3.824219-.898438 8.71875 2.929687 10.925781l27.71875 16c3.824219 2.175781 8.683594.855469 10.882813-2.953125s.910156-8.675781-2.882813-10.902344l-27.71875-16c-3.828125-2.207031-8.71875-.898437-10.929687 2.929688zm0 0"/><path d="m432.039062 176.03125c0 4.417969 3.582032 8 8 8h32c4.417969 0 8-3.582031 8-8s-3.582031-8-8-8h-32c-4.417968 0-8 3.582031-8 8zm0 0"/><path d="m414.886719 112.03125c2.210937 3.824219 7.101562 5.136719 10.929687 2.925781l27.71875-16c3.792969-2.222656 5.082032-7.089843 2.882813-10.898437s-7.058594-5.128906-10.882813-2.957032l-27.71875 16c-3.828125 2.210938-5.136718 7.101563-2.929687 10.929688zm0 0"/><path d="m368.039062 65.183594c3.828126 2.207031 8.71875.898437 10.929688-2.929688l16-27.71875c2.171875-3.824218.851562-8.683594-2.957031-10.882812-3.804688-2.199219-8.675781-.910156-10.898438 2.882812l-16 27.71875c-2.210937 3.828125-.898437 8.71875 2.925781 10.929688zm0 0"/></svg>